<?xml version="1.0" encoding="utf-8"?>
<!-- Generator: Adobe Illustrator 19.1.0, SVG Export Plug-In . SVG Version: 6.00 Build 0)  -->
<svg version="1.1" id="Layer_1" xmlns="http://www.w3.org/2000/svg" xmlns:xlink="http://www.w3.org/1999/xlink" x="0px" y="0px"
	 viewBox="-20 18.6 34.3 38.4" style="enable-background:new -20 18.6 34.3 38.4;" xml:space="preserve">
<style type="text/css">
	.st0{fill:#FFFFFF;}
</style>
<path class="st0" d="M7.7,36.6l6.4-1.5c0.2,0,0.3-0.2,0.2-0.3l-3.7-16c0-0.2-0.2-0.3-0.3-0.2l-29.8,6.8c-0.2,0-0.3,0.2-0.2,0.3
	l3.7,16c0,0.2,0.2,0.3,0.3,0.2l1.7-0.4c0,0.8,0.4,1.6,1.1,2.1l3.2,2.4c0.1,3.8,1.9,5.3,2.8,5.8v5H7.5v-5.3L9,42.8
	c0.3-2.5,0-3.3-0.8-5.2C8.2,37.5,7.7,36.6,7.7,36.6z M9.7,20.4l3.1,13.5c0,0.2-0.1,0.3-0.2,0.3L2.5,36.5l-2.7-3.8
	c0.7-0.6,1-1.4,0.8-2.3c-0.3-1.2-1.1-1.8-2.8-1.9l-0.3-1.2c0.2,0,0.4,0.1,0.6,0.1c0.1,0,0.2,0,0.3,0c0.1,0,0.1,0,0.2,0
	c0.2-0.1,0.5-0.2,0.6-0.4c0.1-0.2,0.2-0.5,0.1-0.7C-0.8,26-1,25.7-1.4,25.6c-0.4-0.1-0.8-0.2-1.3-0.2c-0.1,0-0.2,0-0.3,0
	c-0.1-0.3-0.4-0.6-0.7-0.6c-0.1,0-0.1,0-0.2,0c-0.2,0-0.4,0.2-0.5,0.3c-0.1,0.2-0.1,0.3-0.1,0.5c-1.3,0.5-2,1.6-1.7,2.7
	s1,1.6,1.9,1.8c-0.5,0.1-1,0.3-1.5,0.6c-1.4,1-1.8,3-0.9,4.5l1.7,2.7l-9.9,2.3c-0.2,0-0.3-0.1-0.3-0.2l-3.1-13.5
	c0-0.2,0.1-0.3,0.2-0.3L9.2,20C9.6,20.1,9.7,20.2,9.7,20.4z M-1.3,31.2c-0.1-0.1-0.2-0.2-0.3-0.3l-0.1-0.4c0.4,0.1,0.4,0.2,0.5,0.4
	C-1.3,31-1.3,31.1-1.3,31.2z M-3.7,28.4C-4,28.3-4.1,28.2-4.1,28c0-0.1-0.1-0.3,0.2-0.5L-3.7,28.4z M-4.9,43.1
	c-0.2-0.2-0.4-0.3-0.6-0.5l-3.3-2.3l3.2-0.7l1.7,1.4C-4.3,41.6-4.8,42.3-4.9,43.1z M-12.7,41.3l2.1-0.5l4.3,2.9c0.7,0.5,1,0.9,1.1,1
	v0.1c0,0.1,0,0.2,0,0.3c0,0.2,0,0.5,0.1,0.7l0,0c0,0.1-0.4,0.6-1,0.7c-0.1,0-0.1,0-0.2,0c-0.4,0-0.8-0.2-1.3-0.5l-4.4-3.3
	C-12.6,42.3-12.8,41.8-12.7,41.3z M-6.4,47.8c0.2,0,0.3,0,0.5,0c0.4-0.1,0.8-0.3,1.1-0.5c0.4,1.1,1.2,2.1,2.3,3.1
	c0.1,0.1,0.3,0.2,0.4,0.2c0.2,0,0.4-0.1,0.5-0.2c0.2-0.3,0.2-0.7-0.1-0.9C-3.2,48.2-4,46.8-4,45.3c-0.1-2.3,1.7-4.2,1.8-4.2l0.4-0.4
	l-3.6-5.8C-6,34-5.7,32.8-4.8,32.1c0.1-0.1,0.2-0.1,0.3-0.2c0.3-0.1,0.5-0.2,0.8-0.2c0.1,0,0.3,0,0.4,0s0.3,0.1,0.4,0.1
	c0.4,0.2,0.7,0.5,1,0.8l5.2,7.2c0.1,0.2,0.3,0.3,0.5,0.3c0.1,0,0.3,0,0.4-0.1c0.3-0.2,0.4-0.6,0.1-0.9l-1.1-1.5l3.2-0.7l0.5,1.3
	c0.7,1.8,1,2.4,0.7,4.5l-1.5,8.8v4.1H-5.8v-4.1V51l-0.4-0.1c0,0-1.8-0.6-2.3-3.7C-7.7,47.6-7,47.8-6.4,47.8z"/>
</svg>
